<svg viewBox="0 0 700 700" xmlns="http://www.w3.org/2000/svg"><circle style="fill:#2e5295" cx="337.327" cy="268.128" r="231.079"/><circle style="stroke:#000;fill:#f4f1bb" cx="451.901" cy="381.492" r="141.266"/><path style="stroke:#000;fill:#448f49" d="M514.115 134.674c4.256 0 11.895-.957 15.649 1.48 1.808 1.174.823 4.277 1.734 6.231 2.199 4.721 4.54 9.242 7.428 13.595 9.429 14.214 11.781 28.459 15.882 44.864 3.832 15.327 8.839 30.563 10.431 46.333 1.133 11.231.5 19.027-5.286 28.791-.579.976-1.065 5.837-2.221 6.314-2.53 1.041-7.337-3.863-8.936-5.253-7.524-6.538-15.039-13.133-23.212-18.877-8.845-6.215-20.482-6.91-30.696-9.427-15.786-3.889-30.759-13.491-47.76-10.584-27.744 4.743-54.47 16.619-82.502 18.132-12.971.7-27.976-1.715-36.096-12.939-9.789-13.531-1.861-37.117 13.533-43.543 28.783-12.012 60.482 7.278 89.404-7.183 10.966-5.482 12.152-22.384 14.842-32.974.775-3.051-.23-8.803 2.018-11.096 1.584-1.616 3.374-3.172 5.107-4.631 5.169-4.351 11.588-9.809 18.522-10.02 1.934-.059 5.753-1.924 5.995.787h36.164Zm-386.991 70.978c0-6.832 2.364-12.48 3.703-19.031 4.846-23.707 12.55-46.398 28.7-64.858 9.844-11.254 22.118-18.13 33.606-27.152 7.271-5.711 17.41-9.208 23.865-15.663 2.503-2.503 8.672-7.7 11.983-8.091 4.23-.499 12.516-8.86 16.187-11.269 11.14-7.313 29.389-14.842 42.663-10.03 2.477.898 1.974 8.18 2.429 10.241 1.615 7.306 2.945 15.641 3.471 23.161.182 2.607-.217 7.826 1.452 9.985 3.476 4.495 11.64 2.828 16.391 2.828 18.234 0 32.457.594 40.084 19.069 2.06 4.992 4.694 16.229-.845 20.426-17.772 13.469-35.905 9.475-56.517 11.312-11.926 1.062-23.852 3.948-35.761 4.44-8.78.362-17.539 1.447-26.288 2.215-2.855.251-9.583-.173-11.95 1.925-14.888 13.201-18.357 42.7-37.801 50.413-8.886 3.525-20.043 3.499-29.436 3.499h-25.71Zm-12.67 67.684c14.648 0 29.241.809 43.914.809 8.676 0 17.171 1.813 25.769 2.694 22.037 2.256 36.145 30.448 16.564 46.894-6.169 5.181-15.061 5.237-22.713 5.434-12.074.311-24.548 1.34-36.623 2.117-7.71.496-23.339 4.501-28.185-2.5-6.163-8.905-8.777-27.222-7.57-37.798.588-5.15 6.008-12.459 6.008-16.718Z"/><path style="stroke:#000;fill:#ed6a5a" d="M355.13 474.34c1.455-6.986 5.586-12.475 9.636-18.245 8.477-12.078 17.164-26.248 27.53-36.8 3.35-3.41 15.77-6.872 17.225-11.783 1.653-5.577-3.037-16.387-3.763-22.452-2.054-17.137-2.24-38.92 9.237-52.842 10.389-12.6 35.17-13.579 49.4-8.507 25.355 9.036 31.84 34.61 31.84 58.73 0 8.622-1.99 14.557-4.7 22.626-.774 2.304-1.487 3.9-2.975 5.783-.693.878-3.08 2.724-1.962 2.724 7.717 0 16.115 8.23 21.73 13.1 16.764 14.537 30.142 26.127 33.981 48.754.675 3.977 2.598 9.051 1.8 13.128-.74 3.778-7.177 6.42-10.147 8.064-11.334 6.276-22.379 11.897-34.671 15.985-7.04 2.341-14.237 6.207-21.523 7.557-18.409 3.41-35.752 1.205-53.975-1.622-12.73-1.975-23.813-2.612-35.912-7.92-15.535-6.814-32.846-20.819-32.846-38.865"/><path d="M577.64 298.65c1.23-9.914 1.96-19.879 1.96-29.848 0-45.754-12.937-90.273-37.405-128.8v-.055c-44.523-70.113-120.57-111.95-203.39-111.95-109.26 0-204.96 73.695-232.85 179.2-4.762 18.09-7.39 36.902-7.84 56l-.055 1.793c-.058 1.29-.058 2.52-.058 3.809a242.68 242.68 0 0 0 5.32 50.398c23.465 110.32 122.53 190.4 235.48 190.4 10.078 0 20.047-.672 29.902-1.902 23.688 15.34 51.855 24.3 82.098 24.3 83.383 0 151.2-67.815 151.2-151.2 0-30.296-8.96-58.464-24.359-82.151zM518.952 145.6c1.457 2.129 2.91 4.2 4.313 6.383a217.733 217.733 0 0 1 25.258 55.945 218.341 218.341 0 0 1 8.675 60.87c0 1.512-.113 3.024-.113 4.595-27.324-27.051-64.902-43.793-106.29-43.793-24.922 0-48.441 6.105-69.16 16.8l-31.641-.003c-9.297 0-16.801-7.559-16.801-16.801a16.778 16.778 0 0 1 16.801-16.801h67.199c21.617 0 39.199-17.586 39.199-39.2v-11.198a16.778 16.778 0 0 1 16.801-16.801zm-241.75-86.355v7.953c0 21.617 17.586 39.2 39.199 39.2H327.6c4.762 0 9.184 1.96 12.434 5.487 3.191 3.528 4.762 8.176 4.258 12.992-.785 8.457-8.68 15.121-17.922 15.121h-88.367c-21.617 0-39.2 17.586-39.2 39.2 0 9.238-7.558 16.8-16.8 16.8h-49.168c23.574-66.809 77.953-117.21 144.37-136.75zm-151.98 255.25c-2.016-9.52-3.36-19.207-4.09-28.895h60.875c9.239 0 16.801 7.504 16.801 16.801 0 9.238-7.558 16.801-16.8 16.801h-55.665c-.39-1.57-.785-3.14-1.12-4.707zm213.59 172.7c-92.961 0-175.5-59.809-205.91-145.6l49.109.004c21.617 0 39.199-17.586 39.199-39.2 0-21.616-17.586-39.198-39.199-39.198l-61.434-.004c.336-15.23 2.352-30.297 5.77-44.801h55.664c21.617 0 39.199-17.586 39.199-39.199a16.778 16.778 0 0 1 16.8-16.801h88.368c20.664 0 38.359-15.566 40.266-35.391 1.007-11.031-2.633-22.008-10.023-30.184-7.45-8.176-18.035-12.824-29.008-12.824h-11.2c-9.296 0-16.8-7.559-16.8-16.801V53.981a216.264 216.264 0 0 1 39.199-3.586c62.945 0 121.52 26.711 162.62 72.801h-28.227c-21.617 0-39.2 17.586-39.2 39.2v11.198c0 9.238-7.558 16.801-16.8 16.801h-67.2c-21.616 0-39.198 17.586-39.198 39.2 0 21.39 17.246 38.808 38.527 39.144-30.52 27.723-49.727 67.648-49.727 112.06 0 41.383 16.742 78.961 43.793 106.29-1.57.055-3.082.11-4.594.11zm112 22.402c-31.023 0-59.473-11.031-81.762-29.344 5.71-22.176 20.441-40.656 41.047-50.961l11.367-5.656c8.625 4.984 18.648 7.894 29.344 7.894 10.641 0 20.664-2.91 29.289-7.894l11.367 5.656c20.609 10.305 35.336 28.785 41.047 50.961-22.227 18.309-50.73 29.344-81.699 29.344zm-36.57-137.04c0-20.16 16.352-36.566 36.566-36.566 20.16 0 36.512 16.406 36.512 36.566.004 20.16-16.348 36.57-36.508 36.57-20.215 0-36.57-16.41-36.57-36.57zm135.97 89.992c-9.07-23.016-26.098-42-48.719-53.312l-3.36-1.68c7.282-9.8 11.595-21.895 11.595-35-.004-32.535-26.434-58.965-58.914-58.965-32.535 0-58.97 26.434-58.97 58.97 0 13.104 4.368 25.198 11.595 35l-3.36 1.679c-22.566 11.312-39.648 30.297-48.719 53.312-18.316-22.289-29.348-50.738-29.348-81.762 0-71.008 57.734-128.8 128.8-128.8 71.008 0 128.8 57.793 128.8 128.8 0 31.023-11.035 59.527-29.402 81.758z"/></svg>