<svg id="Layer_1" data-name="Layer 1" xmlns="http://www.w3.org/2000/svg" viewBox="0 0 500 500"><defs><style>.cls-1{fill:#54c3ef;}.cls-2{fill:#17b1e0;}.cls-3{fill:#444;}.cls-4{fill:#2d2d2d;}.cls-5{fill:none;stroke:#000;stroke-linecap:round;stroke-linejoin:round;stroke-width:15px;}.cls-6{fill:#62bb46;}.cls-7{fill:#59a33e;}</style></defs><title>earth-globe</title><ellipse class="cls-1" cx="231.64" cy="195.56" rx="191.39" ry="187.24"/><path class="cls-2" d="M354.24,51.79A183.9,183.9,0,0,1,396,168.56C396,272,310.34,355.81,204.64,355.81A193.16,193.16,0,0,1,82,312.33a192.62,192.62,0,0,0,149.61,70.48C337.34,382.81,423,299,423,195.56,423,137.79,396.28,86.14,354.24,51.79Z"/><path class="cls-3" d="M141.26,452.76H333.73a39.9,39.9,0,0,1,39.9,39.9v.25a0,0,0,0,1,0,0H101.37a0,0,0,0,1,0,0v-.25A39.9,39.9,0,0,1,141.26,452.76Z"/><path class="cls-4" d="M333.73,452.76h-36a39.9,39.9,0,0,1,39.9,39.9v.25h36v-.25A39.9,39.9,0,0,0,333.73,452.76Z"/><path class="cls-5" d="M357.67,8.32A227.8,227.8,0,0,1,393.28,37.4c88.63,88.63,88.63,232.33,0,321s-232.34,88.63-321,0a229,229,0,0,1-24.4-28.8"/><line class="cls-5" x1="424.8" y1="7.09" x2="393.28" y2="37.4"/><line class="cls-5" x1="41.4" y1="390.49" x2="72.31" y2="358.37"/><line class="cls-5" x1="235.3" y1="424.84" x2="235.3" y2="452.7"/><ellipse class="cls-5" cx="231.64" cy="195.56" rx="191.39" ry="187.24"/><path class="cls-5" d="M141.26,452.76H333.73a39.9,39.9,0,0,1,39.9,39.9v.25a0,0,0,0,1,0,0H101.37a0,0,0,0,1,0,0v-.25A39.9,39.9,0,0,1,141.26,452.76Z"/><path class="cls-6" d="M142.93,176.43c-10.83-12.28-28.88,2.16-38.27-15.89s32.06-31.44,17.49-48.78c-16-19.08-69.88,18.5-69.95,18.55a183.29,183.29,0,0,0-12,65.25c0,63.45,32.26,119.51,81.6,153.38,24.88-5.07,14.05-33.1-.58-48.32-10.64-11.06-13.24-30.33-.73-33.93,25.08-7.22,27.44-28.16,17.33-41.16S153.76,188.7,142.93,176.43Z"/><path class="cls-6" d="M234,307.06s-20.13,42.31-47.39,20.49c-26.14-20.91,4.86-31.33.89-55.27-4.16-25.1,14.07-53.34,38.31-42.09S249.75,275.66,234,307.06Z"/><path class="cls-6" d="M419.34,232.28c-7.93-52.06-42.38-57.36-68.29-52.06s-20.86,39.71-13.8,57.35-5.3,25.6-30.89,62.66-5.54,69.95-5.53,69.95C361,347.34,406.47,295.56,419.34,232.28Z"/><path class="cls-7" d="M395.13,186.71c-6.32,64.25-45.82,119-101.54,147.67a63.65,63.65,0,0,0,7.24,35.8c60.2-22.84,105.64-74.62,118.51-137.9C415.71,208.44,406.51,194.41,395.13,186.71Z"/><path class="cls-6" d="M402.66,111.45C371.17,50.28,306.42,8.32,231.64,8.32A193.38,193.38,0,0,0,123.3,41.2c9.56,7.65,22,13.91,36.79,13.42,36.83-1.23,46.65,28.23,44.19,44.19s16.85,54,49.55,49.1,47.43-47.51,79.35-41.55C359.24,111.22,387.38,122.74,402.66,111.45Z"/><path class="cls-5" d="M142.93,176.43c-10.83-12.28-28.88,2.16-38.27-15.89s32.06-31.44,17.49-48.78c-16-19.08-69.88,18.5-69.95,18.55a183.29,183.29,0,0,0-12,65.25c0,63.45,32.26,119.51,81.6,153.38,24.88-5.07,14.05-33.1-.58-48.32-10.64-11.06-13.24-30.33-.73-33.93,25.08-7.22,27.44-28.16,17.33-41.16S153.76,188.7,142.93,176.43Z"/><path class="cls-5" d="M234,307.06s-20.13,42.31-47.39,20.49c-26.14-20.91,4.86-31.33.89-55.27-4.16-25.1,14.07-53.34,38.31-42.09S249.75,275.66,234,307.06Z"/><path class="cls-5" d="M419.34,232.28c-7.93-52.06-42.38-57.36-68.29-52.06s-20.86,39.71-13.8,57.35-5.3,25.6-30.89,62.66-5.54,69.95-5.53,69.95C361,347.34,406.47,295.56,419.34,232.28Z"/><path class="cls-5" d="M402.66,111.45C371.17,50.28,306.42,8.32,231.64,8.32A193.38,193.38,0,0,0,123.3,41.2c9.56,7.65,22,13.91,36.79,13.42,36.83-1.23,46.65,28.23,44.19,44.19s16.85,54,49.55,49.1,47.43-47.51,79.35-41.55C359.24,111.22,387.38,122.74,402.66,111.45Z"/></svg>